<svg width="324" height="100" viewBox="0 0 324 100" fill="none" xmlns="http://www.w3.org/2000/svg">
<path d="M7.94434 55.9229L26.2432 52.9229L13.252 76.1387C5.70852 69.9025 0.900462 60.4747 0.900391 49.9229C0.900391 31.1452 16.1227 15.9229 34.9004 15.9229C45.4646 15.9229 57.7758 9.96767 68.8604 0L7.94434 55.9229Z" fill="#F7FF00"/>
<path d="M55.7607 23.0732C63.7563 29.2942 68.9004 39.0076 68.9004 49.9229C68.9003 68.7004 53.678 83.9229 34.9004 83.9229C23.7075 83.9229 10.95 89.8965 0 99.8965C0 99.8965 0.0182273 99.8689 0.0556641 99.8174L59.9443 43.9229L42.1797 46.9229L55.7607 23.0732Z" fill="#9B63FF"/>
<path d="M277.151 29H290.399L281.631 53.512L308.255 29H323.359L301.215 49.736L308.127 71.688H293.535L289.951 60.168L276.895 71.688H261.919L277.151 29Z" fill="#F1F1F1"/>
<path d="M206.892 71.688L222.124 29H236.204L246.252 52.04H246.7L254.956 29H268.204L252.972 71.688H238.828L228.78 48.712H228.332L220.14 71.688H206.892Z" fill="#F1F1F1"/>
<path d="M196.882 37.256L194.386 29H213.074L197.842 71.688H184.594L196.882 37.256Z" fill="#F1F1F1"/>
<path d="M153.319 29H166.567L155.495 60.168H179.815L175.655 71.688H138.087L153.319 29Z" fill="#F1F1F1"/>
<path d="M97.447 71.688C96.295 71.688 95.207 71.56 94.311 71.176C93.415 70.856 92.647 70.344 92.135 69.704C91.559 69.064 91.175 68.296 91.047 67.4C90.919 66.504 91.047 65.416 91.495 64.264L101.479 36.424C102.311 34.12 103.783 32.328 105.895 30.984C108.007 29.704 110.247 29 112.679 29H144.359L142.695 33.672C142.439 34.44 142.055 35.208 141.671 35.976C141.287 36.744 140.839 37.512 140.327 38.152C139.815 38.856 139.239 39.432 138.663 39.88C138.023 40.328 137.447 40.52 136.807 40.52H113.255L106.279 60.168H133.287L129.127 71.688H97.447Z" fill="#F1F1F1"/>
</svg>
